<svg width="320" height="96" viewBox="0 0 320 96" fill="none" xmlns="http://www.w3.org/2000/svg" role="img" aria-labelledby="wenjelly-logo-title wenjelly-logo-desc">
  <title id="wenjelly-logo-title">WenJelly</title>
  <desc id="wenjelly-logo-desc">WenJelly wordmark logo traced from the original PNG.</desc>
  <path fill="#0f172a" d="M50 10h9v1H50z M46 11h16v1H46z M100 11h7v1H100z M43 12h20v1H43z M101 12h8v1H101z M41 13h10v1H41z M56 13h8v1H56z M102 13h8v1H102z M39 14h9v1H39z M57 14h7v1H57z M103 14h8v1H103z M203 14h13v1H203z M37 15h9v1H37z M58 15h7v1H58z M104 15h8v1H104z M197 15h19v1H197z M35 16h9v1H35z M58 16h7v1H58z M105 16h7v1H105z M193 16h22v1H193z M34 17h8v1H34z M58 17h7v1H58z M86 17h3v1H86z M105 17h8v1H105z M191 17h13v1H191z M208 17h6v1H208z M33 18h8v1H33z M58 18h7v1H58z M81 18h8v1H81z M105 18h8v1H105z M188 18h11v1H188z M207 18h6v1H207z M32 19h8v1H32z M57 19h8v1H57z M81 19h7v1H81z M106 19h7v1H106z M186 19h10v1H186z M205 19h7v1H205z M31 20h8v1H31z M57 20h8v1H57z M80 20h8v1H80z M106 20h7v1H106z M184 20h10v1H184z M205 20h6v1H205z M245 20h7v1H245z M261 20h7v1H261z M30 21h8v1H30z M57 21h7v1H57z M80 21h8v1H80z M106 21h7v1H106z M182 21h10v1H182z M204 21h7v1H204z M244 21h8v1H244z M260 21h8v1H260z M29 22h8v1H29z M56 22h8v1H56z M79 22h8v1H79z M106 22h7v1H106z M181 22h9v1H181z M203 22h7v1H203z M244 22h7v1H244z M260 22h7v1H260z M28 23h8v1H28z M56 23h8v1H56z M79 23h8v1H79z M106 23h7v1H106z M180 23h8v1H180z M202 23h8v1H202z M243 23h8v1H243z M259 23h7v1H259z M27 24h8v1H27z M55 24h8v1H55z M78 24h8v1H78z M106 24h7v1H106z M178 24h9v1H178z M202 24h7v1H202z M243 24h7v1H243z M259 24h7v1H259z M27 25h8v1H27z M55 25h8v1H55z M78 25h8v1H78z M106 25h7v1H106z M177 25h9v1H177z M201 25h7v1H201z M242 25h8v1H242z M258 25h8v1H258z M26 26h8v1H26z M54 26h8v1H54z M77 26h8v1H77z M105 26h8v1H105z M177 26h8v1H177z M201 26h7v1H201z M242 26h7v1H242z M258 26h7v1H258z M26 27h7v1H26z M54 27h8v1H54z M77 27h8v1H77z M105 27h7v1H105z M176 27h8v1H176z M200 27h7v1H200z M241 27h8v1H241z M257 27h8v1H257z M26 28h7v1H26z M53 28h8v1H53z M76 28h8v1H76z M105 28h7v1H105z M175 28h8v1H175z M199 28h8v1H199z M241 28h7v1H241z M257 28h7v1H257z M25 29h8v1H25z M53 29h8v1H53z M76 29h8v1H76z M105 29h7v1H105z M174 29h8v1H174z M199 29h8v1H199z M240 29h8v1H240z M256 29h8v1H256z M25 30h8v1H25z M52 30h8v1H52z M75 30h9v1H75z M104 30h7v1H104z M174 30h7v1H174z M198 30h8v1H198z M240 30h7v1H240z M256 30h7v1H256z M25 31h7v1H25z M52 31h8v1H52z M75 31h8v1H75z M104 31h7v1H104z M173 31h8v1H173z M198 31h8v1H198z M240 31h7v1H240z M255 31h8v1H255z M25 32h7v1H25z M51 32h8v1H51z M74 32h9v1H74z M104 32h7v1H104z M173 32h7v1H173z M197 32h8v1H197z M239 32h8v1H239z M255 32h7v1H255z M25 33h7v1H25z M51 33h8v1H51z M74 33h8v1H74z M104 33h6v1H104z M172 33h8v1H172z M197 33h8v1H197z M239 33h7v1H239z M254 33h8v1H254z M25 34h8v1H25z M50 34h8v1H50z M73 34h9v1H73z M103 34h7v1H103z M172 34h8v1H172z M197 34h7v1H197z M238 34h8v1H238z M254 34h7v1H254z M26 35h7v1H26z M50 35h8v1H50z M72 35h10v1H72z M103 35h6v1H103z M172 35h7v1H172z M196 35h8v1H196z M238 35h7v1H238z M253 35h8v1H253z M26 36h7v1H26z M49 36h8v1H49z M72 36h9v1H72z M102 36h7v1H102z M172 36h7v1H172z M196 36h7v1H196z M237 36h8v1H237z M253 36h7v1H253z M27 37h7v1H27z M49 37h8v1H49z M71 37h10v1H71z M102 37h7v1H102z M172 37h7v1H172z M195 37h8v1H195z M237 37h7v1H237z M253 37h7v1H253z M28 38h7v1H28z M48 38h8v1H48z M71 38h9v1H71z M102 38h6v1H102z M121 38h6v1H121z M153 38h4v1H153z M172 38h7v1H172z M195 38h7v1H195z M219 38h5v1H219z M236 38h8v1H236z M252 38h7v1H252z M30 39h8v1H30z M48 39h8v1H48z M70 39h10v1H70z M101 39h6v1H101z M118 39h11v1H118z M139 39h7v1H139z M150 39h8v1H150z M172 39h7v1H172z M194 39h8v1H194z M216 39h10v1H216z M236 39h7v1H236z M252 39h7v1H252z M268 39h7v1H268z M284 39h7v1H284z M32 40h5v1H32z M47 40h8v1H47z M70 40h9v1H70z M101 40h6v1H101z M116 40h13v1H116z M138 40h7v1H138z M149 40h10v1H149z M172 40h7v1H172z M194 40h7v1H194z M214 40h13v1H214z M235 40h8v1H235z M251 40h8v1H251z M267 40h8v1H267z M283 40h8v1H283z M47 41h8v1H47z M69 41h10v1H69z M100 41h6v1H100z M114 41h8v1H114z M124 41h6v1H124z M138 41h7v1H138z M147 41h13v1H147z M173 41h7v1H173z M193 41h8v1H193z M212 41h8v1H212z M222 41h6v1H222z M235 41h7v1H235z M251 41h7v1H251z M266 41h8v1H266z M283 41h7v1H283z M46 42h8v1H46z M68 42h11v1H68z M100 42h6v1H100z M113 42h7v1H113z M125 42h5v1H125z M137 42h7v1H137z M146 42h14v1H146z M173 42h7v1H173z M193 42h8v1H193z M211 42h7v1H211z M223 42h5v1H223z M234 42h8v1H234z M250 42h7v1H250z M266 42h7v1H266z M282 42h8v1H282z M46 43h8v1H46z M68 43h10v1H68z M99 43h6v1H99z M112 43h7v1H112z M125 43h5v1H125z M137 43h7v1H137z M145 43h4v1H145z M153 43h7v1H153z M174 43h7v1H174z M192 43h8v1H192z M210 43h7v1H210z M223 43h5v1H223z M234 43h7v1H234z M250 43h7v1H250z M266 43h7v1H266z M282 43h7v1H282z M45 44h8v1H45z M67 44h11v1H67z M99 44h6v1H99z M110 44h8v1H110z M125 44h5v1H125z M136 44h7v1H136z M144 44h4v1H144z M153 44h7v1H153z M175 44h7v1H175z M192 44h8v1H192z M208 44h8v1H208z M223 44h5v1H223z M234 44h7v1H234z M249 44h8v1H249z M265 44h8v1H265z M281 44h8v1H281z M45 45h8v1H45z M66 45h12v1H66z M98 45h6v1H98z M109 45h8v1H109z M124 45h6v1H124z M136 45h11v1H136z M153 45h7v1H153z M176 45h9v1H176z M191 45h8v1H191z M207 45h8v1H207z M222 45h6v1H222z M233 45h7v1H233z M249 45h7v1H249z M265 45h7v1H265z M281 45h7v1H281z M44 46h8v1H44z M66 46h3v1H66z M70 46h7v1H70z M97 46h6v1H97z M109 46h7v1H109z M123 46h7v1H123z M135 46h11v1H135z M152 46h7v1H152z M178 46h7v1H178z M191 46h8v1H191z M207 46h7v1H207z M221 46h6v1H221z M233 46h7v1H233z M248 46h8v1H248z M264 46h8v1H264z M280 46h8v1H280z M44 47h8v1H44z M65 47h4v1H65z M70 47h7v1H70z M97 47h5v1H97z M108 47h7v1H108z M122 47h7v1H122z M135 47h10v1H135z M152 47h7v1H152z M191 47h7v1H191z M206 47h8v1H206z M220 47h7v1H220z M232 47h7v1H232z M248 47h7v1H248z M264 47h7v1H264z M280 47h7v1H280z M43 48h8v1H43z M64 48h4v1H64z M69 48h8v1H69z M96 48h6v1H96z M107 48h8v1H107z M121 48h7v1H121z M134 48h10v1H134z M151 48h7v1H151z M190 48h8v1H190z M205 48h8v1H205z M219 48h7v1H219z M232 48h7v1H232z M247 48h8v1H247z M263 48h7v1H263z M279 48h8v1H279z M43 49h8v1H43z M63 49h4v1H63z M69 49h7v1H69z M96 49h5v1H96z M107 49h7v1H107z M120 49h7v1H120z M134 49h9v1H134z M151 49h7v1H151z M190 49h7v1H190z M205 49h7v1H205z M218 49h7v1H218z M231 49h7v1H231z M247 49h7v1H247z M263 49h7v1H263z M279 49h7v1H279z M43 50h8v1H43z M63 50h3v1H63z M69 50h7v1H69z M95 50h5v1H95z M106 50h8v1H106z M119 50h7v1H119z M133 50h9v1H133z M150 50h7v1H150z M189 50h8v1H189z M204 50h8v1H204z M216 50h8v1H216z M231 50h7v1H231z M247 50h7v1H247z M262 50h8v1H262z M278 50h8v1H278z M42 51h8v1H42z M62 51h4v1H62z M69 51h7v1H69z M94 51h5v1H94z M106 51h7v1H106z M116 51h8v1H116z M132 51h10v1H132z M150 51h7v1H150z M165 51h1v1H165z M189 51h7v1H189z M204 51h7v1H204z M214 51h8v1H214z M230 51h7v1H230z M246 51h7v1H246z M262 51h7v1H262z M277 51h8v1H277z M42 52h8v1H42z M61 52h4v1H61z M68 52h8v1H68z M93 52h5v1H93z M105 52h17v1H105z M131 52h10v1H131z M149 52h7v1H149z M164 52h2v1H164z M188 52h8v1H188z M203 52h17v1H203z M229 52h8v1H229z M245 52h8v1H245z M261 52h8v1H261z M277 52h8v1H277z M42 53h8v1H42z M60 53h4v1H60z M68 53h8v1H68z M92 53h6v1H92z M105 53h15v1H105z M130 53h10v1H130z M149 53h7v1H149z M163 53h3v1H163z M188 53h7v1H188z M203 53h15v1H203z M228 53h9v1H228z M245 53h7v1H245z M260 53h8v1H260z M276 53h9v1H276z M41 54h8v1H41z M59 54h4v1H59z M68 54h8v1H68z M91 54h6v1H91z M105 54h12v1H105z M129 54h11v1H129z M148 54h7v1H148z M163 54h2v1H163z M187 54h8v1H187z M197 54h4v1H197z M203 54h12v1H203z M227 54h9v1H227z M244 54h8v1H244z M260 54h8v1H260z M275 54h9v1H275z M41 55h8v1H41z M58 55h5v1H58z M68 55h8v1H68z M90 55h6v1H90z M105 55h7v1H105z M128 55h11v1H128z M148 55h7v1H148z M161 55h3v1H161z M187 55h14v1H187z M203 55h7v1H203z M226 55h10v1H226z M243 55h8v1H243z M258 55h9v1H258z M274 55h9v1H274z M41 56h8v1H41z M57 56h5v1H57z M68 56h8v1H68z M89 56h6v1H89z M105 56h7v1H105z M127 56h11v1H127z M147 56h7v1H147z M161 56h3v1H161z M186 56h13v1H186z M202 56h8v1H202z M225 56h10v1H225z M242 56h9v1H242z M257 56h10v1H257z M273 56h10v1H273z M41 57h8v1H41z M56 57h5v1H56z M68 57h8v1H68z M88 57h6v1H88z M105 57h7v1H105z M125 57h13v1H125z M147 57h7v1H147z M159 57h4v1H159z M185 57h11v1H185z M202 57h8v1H202z M224 57h3v1H224z M228 57h7v1H228z M241 57h10v1H241z M256 57h10v1H256z M272 57h11v1H272z M41 58h8v1H41z M54 58h6v1H54z M68 58h9v1H68z M86 58h6v1H86z M105 58h7v1H105z M123 58h5v1H123z M130 58h7v1H130z M146 58h8v1H146z M158 58h4v1H158z M181 58h12v1H181z M203 58h7v1H203z M222 58h4v1H222z M228 58h7v1H228z M239 58h11v1H239z M255 58h11v1H255z M271 58h11v1H271z M292 58h2v1H292z M41 59h18v1H41z M69 59h8v1H69z M85 59h6v1H85z M105 59h8v1H105z M122 59h5v1H122z M129 59h8v1H129z M146 59h8v1H146z M157 59h4v1H157z M178 59h15v1H178z M203 59h8v1H203z M220 59h5v1H220z M228 59h7v1H228z M238 59h4v1H238z M243 59h7v1H243z M253 59h5v1H253z M259 59h7v1H259z M270 59h4v1H270z M275 59h7v1H275z M291 59h2v1H291z M41 60h17v1H41z M69 60h10v1H69z M82 60h8v1H82z M105 60h9v1H105z M119 60h7v1H119z M129 60h7v1H129z M146 60h14v1H146z M175 60h17v1H175z M203 60h9v1H203z M217 60h7v1H217z M228 60h13v1H228z M243 60h14v1H243z M259 60h14v1H259z M274 60h7v1H274z M290 60h3v1H290z M42 61h14v1H42z M70 61h18v1H70z M106 61h18v1H106z M128 61h7v1H128z M146 61h13v1H146z M172 61h9v1H172z M184 61h8v1H184z M204 61h18v1H204z M228 61h12v1H228z M244 61h11v1H244z M260 61h12v1H260z M274 61h7v1H274z M288 61h4v1H288z M42 62h13v1H42z M70 62h17v1H70z M106 62h16v1H106z M128 62h7v1H128z M147 62h10v1H147z M170 62h8v1H170z M183 62h8v1H183z M205 62h16v1H205z M228 62h10v1H228z M244 62h10v1H244z M260 62h10v1H260z M273 62h7v1H273z M286 62h5v1H286z M43 63h10v1H43z M71 63h14v1H71z M108 63h12v1H108z M127 63h8v1H127z M148 63h8v1H148z M168 63h8v1H168z M183 63h8v1H183z M206 63h13v1H206z M229 63h8v1H229z M245 63h8v1H245z M261 63h8v1H261z M273 63h7v1H273z M284 63h5v1H284z M45 64h5v1H45z M74 64h8v1H74z M110 64h7v1H110z M150 64h2v1H150z M166 64h7v1H166z M182 64h8v1H182z M209 64h6v1H209z M232 64h1v1H232z M248 64h1v1H248z M264 64h2v1H264z M272 64h7v1H272z M281 64h7v1H281z M165 65h7v1H165z M182 65h8v1H182z M272 65h14v1H272z M163 66h7v1H163z M181 66h8v1H181z M271 66h13v1H271z M162 67h7v1H162z M181 67h8v1H181z M267 67h15v1H267z M160 68h7v1H160z M180 68h8v1H180z M262 68h16v1H262z M159 69h7v1H159z M179 69h8v1H179z M259 69h18v1H259z M158 70h7v1H158z M179 70h8v1H179z M257 70h11v1H257z M269 70h7v1H269z M157 71h7v1H157z M178 71h8v1H178z M255 71h8v1H255z M269 71h7v1H269z M157 72h6v1H157z M177 72h8v1H177z M254 72h7v1H254z M268 72h7v1H268z M156 73h7v1H156z M177 73h7v1H177z M253 73h6v1H253z M267 73h8v1H267z M155 74h7v1H155z M176 74h8v1H176z M252 74h5v1H252z M267 74h7v1H267z M155 75h7v1H155z M175 75h8v1H175z M251 75h6v1H251z M266 75h7v1H266z M155 76h6v1H155z M174 76h8v1H174z M250 76h6v1H250z M266 76h7v1H266z M155 77h6v1H155z M173 77h8v1H173z M250 77h5v1H250z M265 77h7v1H265z M154 78h7v1H154z M172 78h8v1H172z M250 78h5v1H250z M264 78h7v1H264z M154 79h7v1H154z M171 79h8v1H171z M250 79h5v1H250z M263 79h7v1H263z M155 80h6v1H155z M170 80h8v1H170z M250 80h5v1H250z M262 80h7v1H262z M155 81h7v1H155z M168 81h8v1H168z M250 81h6v1H250z M260 81h8v1H260z M155 82h8v1H155z M166 82h9v1H166z M251 82h16v1H251z M156 83h18v1H156z M252 83h14v1H252z M158 84h13v1H158z M253 84h10v1H253z M160 85h8v1H160z M256 85h4v1H256z"/>
</svg>
